<svg height="512" viewBox="0 0 64 64" width="512" xmlns="http://www.w3.org/2000/svg"><g id="Responsive-3" data-name="Responsive"><path d="m62 10v9h-60v-9a1 1 0 0 1 1-1h58a1 1 0 0 1 1 1z" fill="#57565c"/><path d="m62 19v31a1 1 0 0 1 -1 1h-58a1 1 0 0 1 -1-1v-31z" fill="#e0e0e2"/><circle cx="7" cy="14" fill="#ed1c24" r="2"/><circle cx="14" cy="14" fill="#ffda44" r="2"/><circle cx="21" cy="14" fill="#91cc04" r="2"/><rect fill="#3d9ae2" height="23" rx="2" width="14" x="44" y="32"/><path d="m53 35h-4l-1-3h6z" fill="#57565c"/><path d="m61 8h-58a2 2 0 0 0 -2 2v40a2 2 0 0 0 2 2h40v1a3 3 0 0 0 3 3h10a3 3 0 0 0 3-3v-1h2a2 2 0 0 0 2-2v-40a2 2 0 0 0 -2-2zm-58 2h58v8h-58zm54 43a1 1 0 0 1 -1 1h-10a1 1 0 0 1 -1-1v-19a1 1 0 0 1 1-1h1.279l.772 2.316a1 1 0 0 0 .949.684h4a1 1 0 0 0 .949-.684l.772-2.316h1.279a1 1 0 0 1 1 1zm-7.613-20h3.226l-.334 1h-2.558zm11.613 17h-2v-16a3 3 0 0 0 -3-3h-10a3 3 0 0 0 -3 3v16h-40v-30h58z"/><path d="m7 11a3 3 0 1 0 3 3 3 3 0 0 0 -3-3zm0 4a1 1 0 1 1 1-1 1 1 0 0 1 -1 1z"/><path d="m14 11a3 3 0 1 0 3 3 3 3 0 0 0 -3-3zm0 4a1 1 0 1 1 1-1 1 1 0 0 1 -1 1z"/><path d="m21 11a3 3 0 1 0 3 3 3 3 0 0 0 -3-3zm0 4a1 1 0 1 1 1-1 1 1 0 0 1 -1 1z"/><path d="m55 15h-8a1 1 0 0 0 0 2h8a1 1 0 0 0 0-2z"/><path d="m59 15h-1a1 1 0 0 0 0 2h1a1 1 0 0 0 0-2z"/></g></svg>