<?xml version="1.0" encoding="iso-8859-1"?>
<!-- Generator: Adobe Illustrator 21.0.0, SVG Export Plug-In . SVG Version: 6.00 Build 0)  -->
<svg version="1.1" id="Capa_1" xmlns="http://www.w3.org/2000/svg" xmlns:xlink="http://www.w3.org/1999/xlink" x="0px" y="0px"
	 viewBox="0 0 512 512" style="enable-background:new 0 0 512 512;" xml:space="preserve">
<polygon style="fill:#808080;" points="255.653,335.108 264.469,402.209 171.852,402.209 180.678,335.108 218.155,319.826 "/>
<polygon style="fill:#616161;" points="175.351,375.607 260.974,375.607 255.653,335.109 218.155,319.826 180.678,335.109 "/>
<path style="fill:#EBEBEB;" d="M428.814,81.09v67.483v146.658l-210.658,10.828L7.497,295.231V81.09
	c0-7.306,5.917-13.223,13.223-13.223h394.881C422.907,67.867,428.814,73.784,428.814,81.09z"/>
<path style="fill:#CCCCCC;" d="M401.612,211.421h-82.161c-12.873,0-23.307,10.434-23.307,23.307v14.831v85.549h119.148
	c7.468,0,13.522-6.054,13.522-13.522v-26.355v-83.811L401.612,211.421L401.612,211.421z"/>
<rect x="50.32" y="111.47" style="fill:#7CCBCC;" width="110.351" height="69.998"/>
<g>
	<path style="fill:#808080;" d="M504.5,171.881v14.831l-88.853,12.162l-92.303-12.162v-14.831c0-12.873,10.434-23.307,23.307-23.307
		h82.161h52.379C494.065,148.573,504.5,159.007,504.5,171.881z"/>
	<path style="fill:#808080;" d="M504.5,404.408v16.428c0,12.862-10.434,23.296-23.307,23.296H346.652
		c-12.873,0-23.307-10.434-23.307-23.296v-16.428l90.578-10.404L504.5,404.408z"/>
</g>
<path style="fill:#CCCCCC;" d="M428.814,295.231v26.355c0,7.468-6.054,13.522-13.522,13.522H255.653h-74.975H20.72
	c-7.306,0-13.223-5.917-13.223-13.212v-26.665H428.814z"/>
<path style="fill:#ADADAD;" d="M296.144,335.109h119.148c7.468,0,13.522-6.055,13.522-13.523v-26.355l0,0h-132.67V335.109z"/>
<path style="fill:#EBEBEB;" d="M504.5,186.712v217.696H323.345v-69.298v-39.878v-108.52H504.5z"/>
<rect x="358.752" y="218.661" style="fill:#A6E2E3;" width="110.351" height="69.998"/>
<path d="M481.194,141.073h-134.54c-16.986,0-30.806,13.819-30.806,30.806v115.849H15V81.086c0-3.156,2.567-5.723,5.723-5.723
	h394.881c3.149,0,5.712,2.567,5.712,5.723v39.531c0,4.142,3.357,7.5,7.5,7.5s7.5-3.358,7.5-7.5V81.086
	c0-11.427-9.291-20.723-20.712-20.723H20.723C9.296,60.363,0,69.659,0,81.086v240.806c0,11.421,9.296,20.712,20.723,20.712h228.349
	l6.849,52.1h-75.662l3.463-30.323c0.47-4.116-2.485-7.833-6.601-8.303c-4.12-0.465-7.833,2.485-8.303,6.601l-3.657,32.025h-28.639
	c-4.142,0-7.5,3.358-7.5,7.5s3.358,7.5,7.5,7.5h26.926h109.575h26.78c4.143,0,7.5-3.358,7.5-7.5s-3.357-7.5-7.5-7.5h-28.752
	l-6.849-52.1h31.601c4.143,0,7.5-3.358,7.5-7.5s-3.357-7.5-7.5-7.5H20.723c-3.156,0-5.723-2.563-5.723-5.712v-19.165h300.848
	v118.104c0,16.986,13.819,30.806,30.806,30.806h134.54c16.986,0,30.806-13.819,30.806-30.806V171.88
	C512,154.892,498.18,141.073,481.194,141.073z M346.654,156.073h134.54c8.715,0,15.806,7.09,15.806,15.806v7.332H330.849v-7.332
	C330.848,163.163,337.939,156.073,346.654,156.073z M497,194.211V396.91H330.849V194.211H497z M481.194,436.636h-134.54
	c-8.715,0-15.806-7.09-15.806-15.806v-8.92h166.151v8.92C497,429.546,489.909,436.636,481.194,436.636z"/>
<path d="M358.752,296.154h110.343c4.143,0,7.5-3.358,7.5-7.5v-69.999c0-4.142-3.357-7.5-7.5-7.5H358.752c-4.143,0-7.5,3.358-7.5,7.5
	v69.999C351.252,292.796,354.61,296.154,358.752,296.154z M366.252,226.155h95.343v54.999h-95.343V226.155z"/>
<path d="M50.32,188.969h110.343c4.142,0,7.5-3.358,7.5-7.5v-69.999c0-4.142-3.358-7.5-7.5-7.5H50.32c-4.142,0-7.5,3.358-7.5,7.5
	v69.999C42.82,185.611,46.178,188.969,50.32,188.969z M57.82,118.969h95.343v54.999H57.82V118.969z"/>
<path d="M279.074,210.389H49.39c-4.142,0-7.5,3.358-7.5,7.5c0,4.142,3.358,7.5,7.5,7.5h229.683c4.143,0,7.5-3.358,7.5-7.5
	C286.574,213.747,283.216,210.389,279.074,210.389z"/>
<path d="M279.074,249.763H49.39c-4.142,0-7.5,3.358-7.5,7.5c0,4.142,3.358,7.5,7.5,7.5h229.683c4.143,0,7.5-3.358,7.5-7.5
	C286.574,253.121,283.216,249.763,279.074,249.763z"/>
<path d="M469.095,320.528H362.197c-4.143,0-7.5,3.358-7.5,7.5s3.357,7.5,7.5,7.5h106.898c4.143,0,7.5-3.358,7.5-7.5
	S473.238,320.528,469.095,320.528z"/>
<path d="M469.095,359.903H362.197c-4.143,0-7.5,3.358-7.5,7.5c0,4.142,3.357,7.5,7.5,7.5h106.898c4.143,0,7.5-3.358,7.5-7.5
	C476.595,363.261,473.238,359.903,469.095,359.903z"/>
<g>
</g>
<g>
</g>
<g>
</g>
<g>
</g>
<g>
</g>
<g>
</g>
<g>
</g>
<g>
</g>
<g>
</g>
<g>
</g>
<g>
</g>
<g>
</g>
<g>
</g>
<g>
</g>
<g>
</g>
</svg>
