<?xml version="1.0" encoding="iso-8859-1"?>
<!-- Generator: Adobe Illustrator 21.0.0, SVG Export Plug-In . SVG Version: 6.00 Build 0)  -->
<svg version="1.1" id="Capa_1" xmlns="http://www.w3.org/2000/svg" xmlns:xlink="http://www.w3.org/1999/xlink" x="0px" y="0px"
	 viewBox="0 0 512.001 512.001" style="enable-background:new 0 0 512.001 512.001;" xml:space="preserve">
<rect x="7.504" y="166.262" style="fill:#FFA638;" width="143.041" height="178.382"/>
<g>
	<rect x="208.052" y="166.262" style="fill:#A6E2E3;" width="296.453" height="178.382"/>
	<rect x="7.504" y="394.054" style="fill:#A6E2E3;" width="296.453" height="93.001"/>
	<rect x="356.273" y="394.054" style="fill:#A6E2E3;" width="148.231" height="93.001"/>
	<rect x="7.504" y="24.938" style="fill:#A6E2E3;" width="497.005" height="93.001"/>
</g>
<path d="M303.956,386.556H7.5c-4.142,0-7.5,3.358-7.5,7.5v93.006c0,4.142,3.358,7.5,7.5,7.5h48.523c4.142,0,7.5-3.358,7.5-7.5
	c0-4.142-3.358-7.5-7.5-7.5H15v-78.006h281.456v78.006H86.084c-4.142,0-7.5,3.358-7.5,7.5c0,4.142,3.358,7.5,7.5,7.5h217.872
	c4.143,0,7.5-3.358,7.5-7.5v-93.006C311.456,389.914,308.099,386.556,303.956,386.556z"/>
<path d="M504.5,17.439h-61.741c-4.143,0-7.5,3.358-7.5,7.5s3.357,7.5,7.5,7.5H497v78.006H15V32.439h398.004
	c4.143,0,7.5-3.358,7.5-7.5s-3.357-7.5-7.5-7.5H7.5c-4.142,0-7.5,3.358-7.5,7.5v93.006c0,4.142,3.358,7.5,7.5,7.5h497
	c4.143,0,7.5-3.358,7.5-7.5V24.939C512,20.797,508.643,17.439,504.5,17.439z"/>
<path d="M504.5,158.764H208.044c-4.142,0-7.5,3.358-7.5,7.5v178.382c0,4.142,3.358,7.5,7.5,7.5H504.5c4.143,0,7.5-3.358,7.5-7.5
	V166.264C512,162.122,508.643,158.764,504.5,158.764z M497,337.147H215.544V173.765H497V337.147z"/>
<path d="M7.5,352.147h143.048c4.142,0,7.5-3.358,7.5-7.5V166.265c0-4.142-3.358-7.5-7.5-7.5H7.5c-4.142,0-7.5,3.358-7.5,7.5v178.382
	C0,348.789,3.358,352.147,7.5,352.147z M15,173.764h128.048v163.382H15V173.764z"/>
<path d="M504.5,386.556H356.272c-4.143,0-7.5,3.358-7.5,7.5v93.006c0,4.142,3.357,7.5,7.5,7.5h148.228c4.143,0,7.5-3.358,7.5-7.5
	v-93.006C512,389.914,508.643,386.556,504.5,386.556z M497,479.562H363.773v-78.006h133.228v78.006H497z"/>
<path d="M253.093,236.798H459.45c4.143,0,7.5-3.358,7.5-7.5c0-4.142-3.357-7.5-7.5-7.5H253.093c-4.142,0-7.5,3.358-7.5,7.5
	C245.593,233.44,248.951,236.798,253.093,236.798z"/>
<path d="M253.093,289.113H459.45c4.143,0,7.5-3.358,7.5-7.5s-3.357-7.5-7.5-7.5H253.093c-4.142,0-7.5,3.358-7.5,7.5
	S248.951,289.113,253.093,289.113z"/>
<path d="M110.017,224.463c-2.929-2.929-7.678-2.929-10.606,0l-20.386,20.386l-20.386-20.386c-2.929-2.929-7.678-2.929-10.606,0
	c-2.929,2.929-2.929,7.678,0,10.606l20.386,20.386l-20.386,20.386c-2.929,2.929-2.929,7.678,0,10.606
	c1.464,1.464,3.384,2.197,5.303,2.197s3.839-0.732,5.303-2.197l20.386-20.386l20.386,20.386c1.464,1.464,3.384,2.197,5.303,2.197
	c1.919,0,3.839-0.732,5.303-2.197c2.929-2.929,2.929-7.678,0-10.606l-20.386-20.385l20.386-20.386
	C112.946,232.141,112.946,227.392,110.017,224.463z"/>
<g>
</g>
<g>
</g>
<g>
</g>
<g>
</g>
<g>
</g>
<g>
</g>
<g>
</g>
<g>
</g>
<g>
</g>
<g>
</g>
<g>
</g>
<g>
</g>
<g>
</g>
<g>
</g>
<g>
</g>
</svg>
